# xmcd
#
# Track frame offsets:
#	150
#	16792
#	31059
#	44570
#	57649
#	70917
#	86534
#	100801
#	116364
#	129362
#	142522
#	158031
#	172271
#	184001
#	197728
#	214775
#	231147
#	245522
#	260545
#	274677
#
# Disc length: 3841 seconds
#
# Revision: 2
# Processed by: cddbd v1.5.1PL0 Copyright (c) Steve Scherf et al.
# Submitted via: audiograbber 1.83.01
#
DISCID=120eff14
DTITLE=João Mineiro e Marciano - As 20 Mais
DYEAR=2000
DGENRE=Country
TTITLE0=Seu amor ainda é tudo
TTITLE1=Ainda ontem chorei de saudade
TTITLE2=Crises de amor
TTITLE3=Amor e amizade
TTITLE4=Esta noite como lembrança
TTITLE5=Amantes e amigos
TTITLE6=A bailarina
TTITLE7=As paredes azuis
TTITLE8=Telefone mais
TTITLE9=Pare com isso
TTITLE10=Caminhão é assim
TTITLE11=Meu desespero (a tabela)
TTITLE12=Whisky com gelo
TTITLE13=Aline
TTITLE14=Amor clandestino
TTITLE15=Benzadeus
TTITLE16=Desconhecida
TTITLE17=No mesmo lugar
TTITLE18=A pretendida
TTITLE19=Minha serenata
EXTD=
EXTT0=
EXTT1=
EXTT2=
EXTT3=
EXTT4=
EXTT5=
EXTT6=
EXTT7=
EXTT8=
EXTT9=
EXTT10=
EXTT11=
EXTT12=
EXTT13=
EXTT14=
EXTT15=
EXTT16=
EXTT17=
EXTT18=
EXTT19=
PLAYORDER=
